<svg width="329" height="265" viewBox="0 0 329 265" fill="none" xmlns="http://www.w3.org/2000/svg">
<path d="M183 53C184.575 53.175 188.119 53.733 189.5 54.5C193.005 56.4475 188.065 58 186 58C184.527 58 180.942 58.9538 183.5 61C184.994 62.195 187.368 62.0945 188.778 63.2222C191.079 65.0635 191.133 64.8822 187.5 66C185.068 66.7484 182.503 67.861 180 68C177.959 68.1134 175.487 70.386 178.5 71.0556C180.905 71.5899 182.637 72 185.222 72C186.775 72 190.06 75.276 188.389 75.9444C186.378 76.7489 183.875 76.3889 182 77.2222C179.623 78.2789 171.602 77.8421 170.222 79.2222C167.635 81.8093 177.442 84.2106 178.222 84.7778C179.66 85.8233 185.45 86 187.389 86C189.106 86 184.091 87.0101 182.556 87.7778C178.908 89.6014 174.127 90 170 90C162.953 90 174.427 93 177 93C179.167 93 181.333 93 183.5 93C186.086 93 186.993 95 184 95C178.379 95 173.426 97.8052 167.778 98C158.508 98.3197 162.808 102 169 102C171.025 102 185.882 100.992 186 103C186.384 109.535 182.721 108 177.222 108C171 108 164.778 108 158.556 108C156.301 108 156.558 111.002 157.778 112.222C159.235 113.679 162.519 113 164.5 113C170.933 113 177.185 112.806 183.444 113.944C189.824 115.104 181.994 119.39 179.5 119.944C174.789 120.991 169.368 121 164.5 121C162.899 121 151.111 119.79 151.111 122.556C151.111 126.718 164.384 125 166.611 125C172.38 125 178.24 124.68 184 125C186.955 125.164 184.495 127.612 182.944 128C175.998 129.737 169.629 131 162.5 131C157.177 131 151.872 130 146.667 130C139.304 130 161.026 134 168.389 134C172.519 134 176.648 134 180.778 134C182.572 134 187.001 137 184.5 137C178.302 137 172.028 138 166.056 138C160.204 138 154.352 138 148.5 138C142.892 138 138.37 141.335 145.611 142.944C157.928 145.681 172.276 144 185 144" stroke="url(#paint0_linear_13_71)" stroke-width="7" stroke-linecap="square"/>
<path d="M260 9C262.191 9 263.426 10.479 265.444 11.0556C266.634 11.3954 268.784 11.6819 270 12.2222C278.58 16.0354 265.067 14.3776 263.222 16.2222C260.013 19.4313 272.402 20 273.222 20C276.509 20 283.192 19.1537 285.778 21.2222C290.403 24.9224 288.757 25 283 25C280.109 25 273.452 24.4383 271.222 26.2222C261.952 33.6384 279.794 32 285 32C288.813 32 296.775 30.5195 299.778 33.2222C304.766 37.7116 304.949 39 298 39C289.708 39 281.28 38.5642 273 39C271.858 39.0601 267.111 39.8514 267.111 41.4444C267.111 42.4705 270.52 43.2161 271.222 43.7778C273.881 45.9045 285.253 44 289 44C294.661 44 300.701 47 306 47C306.817 47 309.706 47.7225 309.944 48.5556C310.678 51.1216 308.105 51.1959 306.5 52.4444C303.892 54.4726 295.093 53 291.944 53C287.285 53 283.343 52 279 52C277.239 52 266.111 51.2965 266.111 53.5C266.111 56.6012 276.48 58 278.556 58C289.019 58 299.481 58 309.944 58C311.85 58 313.76 57.6079 315.222 58.7778C315.531 59.0251 319.043 61.202 316.444 61.9444C311.931 63.234 307.282 63 302.5 63C293.359 63 284.619 64 275.444 64C274.626 64 264.184 64.3471 267.5 67C272.001 70.6007 277.393 69.5004 282.944 70.0556C293.738 71.1349 304.569 71 315.5 71C316.991 71 319.932 70.4016 320.778 72C321.184 72.7677 321.452 76.6566 320.444 76.9444C315.203 78.4419 309.145 76.2442 303.778 77.7778C293.85 80.6144 281.301 79 271 79C267.26 79 263.467 83.7088 269 84C271.949 84.1552 274.359 86 277.5 86C279.667 86 281.833 86 284 86C294.878 86 306.07 86.3928 317 87C318.989 87.1105 325.142 89.0895 323.222 91.2222C320.983 93.7104 315.434 94 312 94C299.09 94 286.613 92 273.778 92C269.358 92 266.513 93.2772 264.222 96.2222C263.241 97.4844 279.659 98 282.222 98C294.028 98 305.477 99 317.222 99C318.514 99 322.101 98.3767 323 99.5C324.298 101.123 324.137 102.87 321.778 103.778C317.323 105.491 312.676 105 307.944 105C297.815 105 287.685 105 277.556 105C273.862 105 268.771 105.163 265.556 107C260.12 110.106 267.626 112 271 112C282.148 112 293.296 112 304.444 112C308.856 112 314.222 111.105 318.5 112.056C326.827 113.906 318.507 116.555 315 116.944C310.263 117.471 305.668 119.156 301.333 119.944C296.429 120.836 290.472 120 285.5 120C283.629 120 282.131 118.112 280 118C277.845 117.887 275.658 118 273.5 118C270.482 118 263.481 117.147 266 121.556C271.083 130.452 323.347 118.553 322 130C321.755 132.083 285.691 131.501 281.222 132.778C277.675 133.791 272.417 133.854 268.778 134C267.697 134.043 263.47 135.383 263.167 136.444C262.388 139.169 270.728 139.977 271.778 140C281.249 140.21 290.748 140 300.222 140C306.481 140 312.741 140 319 140C321.8 140 329.087 141.179 323 144.222C313.412 149.016 301.602 147 291 147C285.093 147 270.137 144.291 265.222 148.222C260.623 151.901 271.224 151 273.222 151C277.631 151 281.788 151.829 286.222 152C297.449 152.432 309.034 153 320.5 153C322.398 153 323.19 155.292 323 157C322.695 159.749 317.776 159 316 159C310.352 159 304.704 159 299.056 159C293.222 159 287.389 159 281.556 159C278.214 159 269.396 157.389 266.611 159.556C261.144 163.808 269.848 165 272.944 165C277.733 165 282.921 164.423 287.667 165.056C294.81 166.008 302.344 168 309.556 168C313.554 168 316.893 168.041 320.444 169.056C325.502 170.501 327.552 172 320.444 172C313.481 172 306.519 172 299.556 172C287.938 172 278.485 172.614 267.5 175.056C265.768 175.44 265.109 178.919 267.222 179C269.658 179.094 272.116 179 274.556 179C279.36 179 283.7 178 288.556 178C294.704 178 300.852 178 307 178C310.805 178 315.526 177.234 319 178.778C321.267 179.785 326.545 181.764 322.778 184.778C320.388 186.69 310.263 185 307.222 185C297.481 185 287.741 185 278 185C274.032 185 269 183.602 269 189C269 192.145 278.014 192 280.778 192C285.593 192 290.407 192 295.222 192C300.47 192 304.995 194 310.222 194C311.173 194 322.364 193.795 320.778 195.778C318.827 198.216 312.071 197 309.333 197C298.889 197 288.444 197 278 197C276.328 197 272.565 196.208 272.056 198.5C271.498 201.009 273.28 201.931 275.556 202C279.678 202.125 283.709 203 288 203C292.992 203 298.011 202.853 303 203C307.123 203.121 312.077 205.192 316.444 203.944C319.089 203.189 317.924 187.534 318 184.333C318.123 179.157 319.659 190.645 319.944 192.5C320.534 196.335 321.997 203.761 320.944 207.444C319.815 211.397 309.944 208 307.5 208C301.291 208 294.917 207 288.556 207C284.154 207 279.459 206.301 275.5 208.5C271.928 210.484 272.305 214.987 276.611 215.944C280.496 216.808 286.666 213.907 290.5 213.056C295.201 212.011 300.22 212 305.056 212C307.027 212 314.358 210.803 315.778 212.222C317.177 213.622 316.052 216.711 314.5 217.056C308.832 218.315 302.296 220 296.5 220C294.094 220 281.518 218.938 281.056 220.556C279.731 225.19 288.551 225 291.444 225C296.077 225 301.874 224.052 306.389 225.056C310.414 225.95 302.597 231.615 301.444 231.944C299.604 232.47 290.564 230.777 290.056 232.556C288.892 236.628 297.084 236 297 236" stroke="url(#paint1_linear_13_71)" stroke-width="7" stroke-linecap="square"/>
<path d="M286 248C281.151 248 274.569 251.239 270.5 253.5C269.438 254.09 266.071 255.937 265 256C262.017 256.175 258.199 255.164 255.778 256.778C254.802 257.428 248.835 258 247.389 258C243.557 258 240.433 258.565 237 259.056C230.207 260.026 224.118 261 217.111 261C189.741 261 162.37 261 135 261C122.497 261 110.031 261.439 97.7778 259.778C89.1308 258.605 62.885 259 71.6111 259C78.1857 259 84.7465 258 91 258C96.3333 258 101.667 258 107 258C113.438 258 119.725 256.349 126 256C140.771 255.179 155.865 256 170.667 256C186.266 256 201.829 259 217.5 259C218.293 259 224.801 259.245 222.778 257.222C221.93 256.375 218.243 254.146 217 254C211.012 253.295 205.182 253 199 253C167.831 253 137.484 251 106.222 251C101.342 251 115.986 246.391 117.056 245.5C120.625 242.526 128.243 243 132.778 243C146.7 243 160.352 246 174.5 246C178.568 246 211 248.809 211 243C211 242.15 163.533 239 157.611 239C151.354 239 145.031 238 139 238C134.906 238 129.027 237.459 125.5 235.5C123.241 234.245 114.286 232 123 232C130.519 232 138.037 232 145.556 232C151.73 232 158.438 233.24 164.556 234.056C171.475 234.978 178.207 235 185.222 235C187.862 235 203.944 235.699 200.5 229.5C197.379 223.883 189.606 226 183.889 226C167.926 226 152.421 227 136.5 227C134.36 227 119 226.993 119 224C119 218.065 134.065 220 137.222 220C153.571 220 170.278 219 186.389 219C188.372 219 193.302 217.317 193.889 215.222C194.324 213.668 176.845 214 175.444 214C168.111 214 160.778 214 153.444 214C145.259 214 137.074 214 128.889 214C127.254 214 113.951 212.636 120.222 210.778C127.381 208.657 136.094 210 143.556 210C153.289 210 162.902 208 172.5 208C175.242 208 189.891 209.874 191.778 207.778C198.349 200.477 176.024 202 175.222 202C171.315 202 167.407 202 163.5 202C159.494 202 151.849 200.659 148.167 202.5C143.59 204.789 133.333 203.13 128.5 202.056C124.824 201.239 113.492 202.262 122.667 199C127.361 197.331 134.808 197 139.556 197C144.61 197 149.457 196 154.5 196C160 196 165.5 196 171 196C174.111 196 185.16 197.681 187.778 195.778C193.576 191.561 179.224 192 177.444 192C170.969 192 164.227 191 157.5 191C145.667 191 133.833 191 122 191" stroke="url(#paint2_linear_13_71)" stroke-width="7" stroke-linecap="square"/>
<path d="M120 4C106.407 4 92.8148 4 79.2222 4C76.3251 4 74.2209 4.25961 71.4444 5C70.2842 5.30939 63.106 7 68.0556 7C74.6695 7 81.3378 6.67234 87.8889 5.94444C93.0181 5.37453 97.8643 5 103.222 5C106.961 5 110.382 5.12598 114 6.22222C118.034 7.44456 108.267 9.70404 107 10.2222C101.53 12.4601 96.8577 11.4753 91.0556 12.0556C83.2433 12.8368 75.6823 13 67.7222 13C65.1898 13 53.5439 14.1118 54.7778 15.2222C58.6058 18.6674 62.6777 16 66.6667 16C72.7037 16 78.7407 16 84.7778 16C87.5114 16 90.5374 15.6469 93.2222 16.2222C95.6017 16.7321 101.589 17.5764 98.7778 19.2222C86.1557 26.6108 71.1891 23 57.5 23C52.5926 23 47.6852 23 42.7778 23C41.3939 23 37 22.7063 37 25C37 26.9117 44.3321 26 45.7778 26C60.034 26 74.2124 25 88.3333 25C90.8913 25 100.605 27.0415 93.5556 29.0556C88.4711 30.5082 81.5482 32 75.9444 32C62.963 32 49.9815 32 37 32C35.5068 32 26.4444 31.1947 26.0556 32.5556C24.4193 38.2823 47.4047 35 48.7222 35C64.3148 35 79.9074 35 95.5 35C100.007 35 97.708 40.5742 95 41.7778C91.0731 43.5231 83.8721 42 79.5556 42C65.8704 42 52.1852 42 38.5 42C33.5397 42 28.82 44.7165 24 45C22.4598 45.0906 20.7581 46.7932 19 47C16.2097 47.3283 22.882 48 23.7778 48C37.3007 48 50.5141 49 64 49C74.8539 49 86.9934 47.6096 97.5 49.9444C98.6992 50.2109 106.388 52.7015 104 53C102.44 53.1949 101.77 55.8959 100 56C94.046 56.3502 87.2693 57 80.7778 57C64.2037 57 47.6296 57 31.0556 57C26.037 57 21.0185 57 16 57C14.4927 57 12.5833 58.873 14.5556 60C17.1311 61.4718 19.6741 60.825 22.5556 61.0556C40.8422 62.5185 59.3575 62 77.7778 62C82.3888 62 87.8803 63.3277 92.6111 64.0556C96.0848 64.59 101.567 71 96 71C82.1852 71 68.3704 71 54.5556 71C42.7037 71 30.8519 71 19 71C17.5857 71 6.32261 74.735 10.5556 75.9444C18.6907 78.2688 28.59 77 37.2222 77C43.963 77 50.7037 77 57.4444 77C61.3207 77 76.704 74.7632 79.7778 77.2222C81.3569 78.4855 83.5135 77.8237 85.5 78.5556C86.5454 78.9407 92.4222 84.0937 89.4444 84.9444C84.6042 86.3274 77.4039 85 72.5 85C53.8519 85 35.2037 85 16.5556 85C15.2708 85 11.1056 84.2055 11 86C10.6819 91.4078 16.7307 90.3806 21 90.7778C28.7501 91.4987 36.7789 91 44.5556 91C53.9074 91 63.2593 91 72.6111 91C75.8653 91 88.6823 90.3939 85.4444 95.9444C82.904 100.3 76.6476 100 72.4444 100C64.6861 100 56.5698 100.781 49 99C37.577 96.3122 24.2633 96 12.7778 96C11.4182 96 -0.511215 98.2111 5.55556 99.9444C9.8024 101.158 14.5085 100.863 19.0556 102C29.0311 104.494 38.5092 106 48.7778 106C56.0442 106 64.7104 104.828 71.7778 106.778C73.4338 107.235 76 106.168 76 108.5C76 112.167 71.8331 111 69 111C60.1296 111 51.2593 111 42.3889 111C35.7334 111 29.6817 109.239 23.2222 109C19.1055 108.848 11.3541 107.325 9 111.444C4.73856 118.902 16.888 117 21.1111 117C29.5185 117 37.9259 117 46.3333 117C53.0556 117 59.7778 117 66.5 117C70.961 117 74.526 117.092 71 121.5C68.1042 125.12 59.9072 124 56 124C48.3333 124 40.6667 124 33 124C28.6797 124 6.5929 121.079 7 128C7.24908 132.234 50.2529 130 56 130C60.2451 130 63.2766 131.297 63 136C62.836 138.788 48.2835 138 46 138C33.8333 138 21.6667 138 9.5 138C7.21519 138 7.96574 140.647 9.22222 141.778C9.97217 142.453 13.923 143 15 143C23.4001 143 31.7325 145 40.0556 145C43.7194 145 46.9852 145.962 50.5556 146.778C52.1339 147.139 56.7293 146.174 57.7778 147.222C60.4935 149.938 42.6076 150 42.2222 150C38.3142 150 8.81745 147.889 8.05556 150.556C6.24062 156.908 41.4072 156 47 156C50.0489 156 55.8422 162 50.4444 162C44.6296 162 38.8148 162 33 162C26.5 162 20 162 13.5 162C11.6937 162 6.58913 161.099 6.05556 163.5C5.42416 166.341 7.37612 166 9.5 166C18.7727 166 27.5371 167.79 36.7778 168C39.1806 168.055 50.0833 171.216 44 173.778C41.1269 174.987 36.9415 173.745 33.8333 174.056C29.984 174.44 26.4294 175 22.5556 175C16.8889 175 11.2222 175 5.55556 175C2.7372 175 11.1864 179.274 13 179.778C19.371 181.548 25.0779 182 31.6111 182C35.2227 182 38.4907 182.825 42 183C44.1827 183.109 48.5503 184 43.7778 184C34.5023 184 25.1005 185 16 185C15.3649 185 3.35911 186.031 8.55556 189C13.0248 191.554 18.671 188.982 23.5 190.056C28.0765 191.073 41.6881 194 37 194C32.2547 194 27.9338 197 23 197C20.9866 197 9.11111 196.556 9.11111 197.556C9.11111 201.711 19.6989 200.953 21.7778 201C27.0411 201.12 31.7982 204.011 36.5 205.056C39.7725 205.783 33.6793 208 32.5556 208C29.8704 208 27.1852 208 24.5 208C21.9997 208 11.7307 208.841 13 209C13.841 209.105 16.889 210.728 18 211.222C20.4472 212.31 22.9787 211.791 25.4444 212.778C29.6477 214.459 35 213.359 35 218.5C35 222.125 23.7127 219.111 21.6111 219.111C18.5919 219.111 21.4322 221.911 21.7778 222.222C23.8618 224.098 25.8705 224.702 29 225C29.7715 225.073 34.7496 225.873 34.9444 226.556C35.2356 227.575 35.512 232.639 34.4444 232.944C32.865 233.396 30.6422 233 29 233C26.0807 233 29.0795 232.864 30.2222 233.778C31.7017 234.961 44.0115 237.711 36.7778 238C33.9315 238.114 35.1956 240.148 36 241.556C37.4427 244.08 43.6797 244 46.2778 244C46.69 244 45.0276 244.084 44.5556 244.556C43.7962 245.315 44 246.527 44 247.5C44 251.265 46.0103 250.548 49.0556 251.5C54.3835 253.165 48.0832 251.313 49.2222 252.778C50.5954 254.543 53.1748 255.171 55.2222 255.778C59.4973 257.044 63.6099 259 68 259" stroke="url(#paint3_linear_13_71)" stroke-width="7" stroke-linecap="square"/>
<path d="M298 238C293.948 238 285.916 242.168 284 246" stroke="#065298" stroke-width="7" stroke-linecap="round"/>
<defs>
<linearGradient id="paint0_linear_13_71" x1="96.4299" y1="92.4789" x2="171.863" y2="137.032" gradientUnits="userSpaceOnUse">
<stop offset="0.750169" stop-color="#0A89FE"/>
<stop offset="1" stop-color="#065298"/>
</linearGradient>
<linearGradient id="paint1_linear_13_71" x1="223" y1="76" x2="325.36" y2="145.576" gradientUnits="userSpaceOnUse">
<stop stop-color="#0A89FE"/>
<stop offset="1" stop-color="#065298"/>
</linearGradient>
<linearGradient id="paint2_linear_13_71" x1="79" y1="261" x2="286" y2="226.026" gradientUnits="userSpaceOnUse">
<stop stop-color="#0A89FE"/>
<stop offset="0.473781" stop-color="#065298"/>
</linearGradient>
<linearGradient id="paint3_linear_13_71" x1="3.8465" y1="87.8514" x2="120" y2="175.149" gradientUnits="userSpaceOnUse">
<stop offset="0.499687" stop-color="#0A89FE"/>
<stop offset="1" stop-color="#065298"/>
</linearGradient>
</defs>
</svg>
